<?xml version="1.0" encoding="utf-8"?>
<!-- Generator: Adobe Illustrator 16.0.0, SVG Export Plug-In . SVG Version: 6.00 Build 0)  -->
<!DOCTYPE svg PUBLIC "-//W3C//DTD SVG 1.1//EN" "http://www.w3.org/Graphics/SVG/1.1/DTD/svg11.dtd">
<svg version="1.1" id="Layer_1" xmlns="http://www.w3.org/2000/svg" xmlns:xlink="http://www.w3.org/1999/xlink" x="0px" y="0px"
	 width="156.026px" height="41.033px" viewBox="0 0 156.026 41.033" enable-background="new 0 0 156.026 41.033"
	 xml:space="preserve">
<path fill="#00ADAD" d="M16.447,16.348c-3.453,0-6.08,0.819-7.882,2.458c-1.802,1.642-2.702,4.044-2.702,7.214
	c0,3.105,0.862,5.482,2.588,7.133c1.726,1.649,4.218,2.474,7.475,2.474h6.285c0.302,0,0.597-0.049,0.879-0.146
	c0.282-0.098,0.553-0.242,0.814-0.438l1.303-1.076l0.39,0.197l-3.875,6.871H15.34c-4.799,0-8.555-1.303-11.268-3.909
	C1.357,34.519,0,30.905,0,26.281c0-4.69,1.476-8.419,4.429-11.188c2.954-2.767,6.958-4.15,12.018-4.15h8.76l-3.289,6.936
	l-0.391-0.065v-0.454c0-0.283-0.082-0.523-0.244-0.718c-0.163-0.195-0.375-0.293-0.636-0.293H16.447z"/>
<path fill="#00ADAD" d="M41.066,41.032c-3.561,0-6.273-0.852-8.141-2.556c-1.868-1.705-2.8-4.185-2.8-7.442
	c0-3.126,0.955-5.586,2.865-7.376c1.91-1.791,4.538-2.687,7.881-2.687h4.82l-3.289,6.317h-0.391v-0.13
	c0-0.303-0.126-0.538-0.375-0.7c-0.25-0.162-0.613-0.243-1.091-0.243c-1.542,0-2.774,0.434-3.696,1.302
	c-0.924,0.869-1.385,2.019-1.385,3.452c0,1.629,0.473,2.845,1.417,3.647c0.945,0.805,2.382,1.204,4.316,1.204h7.621V19.897
	c0-1.369-0.262-2.301-0.783-2.801c-0.521-0.5-1.508-0.749-2.963-0.749h-9.736c-0.262,0-0.506,0.048-0.734,0.146
	c-0.227,0.099-0.472,0.256-0.733,0.474l-1.27,1.042l-0.325-0.262l3.875-6.806h9.184c3.278,0,5.612,0.749,7.001,2.247
	c1.39,1.498,2.085,4.038,2.085,7.62v17.749c0,0.26,0.037,0.489,0.114,0.684c0.076,0.195,0.189,0.369,0.342,0.521l0.814,0.813v0.456
	H41.066z"/>
<path fill="#00ADAD" d="M76.921,21.232l6.123-7.49c0.15-0.174,0.266-0.353,0.341-0.537c0.077-0.185,0.115-0.374,0.115-0.57
	c0-0.216-0.071-0.423-0.211-0.619c-0.142-0.194-0.354-0.389-0.636-0.586v-0.488h10.192L80.244,25.009l14.004,16.023h-10.26v-0.456
	c0.305-0.216,0.533-0.422,0.686-0.618c0.15-0.195,0.227-0.391,0.227-0.585c0-0.24-0.037-0.461-0.113-0.668
	c-0.076-0.206-0.19-0.387-0.342-0.537l-7.816-8.923l-7.457,8.923c-0.152,0.172-0.267,0.356-0.342,0.552
	c-0.076,0.197-0.114,0.413-0.114,0.653c0,0.194,0.075,0.39,0.227,0.585c0.153,0.196,0.38,0.402,0.685,0.618v0.456H59.369
	l14.004-15.6L60.77,10.941h10.193v0.488c-0.305,0.197-0.532,0.398-0.684,0.604c-0.152,0.206-0.228,0.406-0.228,0.602
	c0,0.174,0.038,0.348,0.114,0.521c0.075,0.175,0.212,0.369,0.407,0.587L76.921,21.232z"/>
<path fill="#F68B21" d="M99.392,38.559V13.353c0-0.217-0.037-0.418-0.113-0.604c-0.076-0.184-0.2-0.362-0.374-0.536l-0.847-0.782
	v-0.488h8.401v0.488l-0.879,0.782c-0.151,0.174-0.267,0.348-0.343,0.52c-0.076,0.176-0.113,0.381-0.113,0.62v25.206
	c0,0.26,0.037,0.49,0.113,0.684c0.076,0.195,0.191,0.369,0.343,0.521l0.879,0.814v0.455h-8.401v-0.455l0.847-0.814
	c0.174-0.152,0.298-0.326,0.374-0.521C99.355,39.049,99.392,38.818,99.392,38.559"/>
<path fill="#00ADAD" d="M121.603,3.874v7.067h5.927l-3.126,6.937l-0.456-0.065v-0.455c0-0.283-0.087-0.522-0.26-0.716
	c-0.175-0.197-0.381-0.293-0.62-0.293h-1.465v22.21c0,0.259,0.037,0.487,0.113,0.683c0.076,0.196,0.191,0.369,0.342,0.522
	l0.814,0.813v0.456h-8.336v-0.456l0.813-0.813c0.151-0.153,0.267-0.326,0.343-0.522c0.076-0.195,0.112-0.424,0.112-0.683v-22.21
	h-4.656v-0.457c1.737-1.671,3.435-3.495,5.099-5.471c1.66-1.977,3.293-4.157,4.899-6.547H121.603z"/>
<path fill="#00ADAD" d="M141.404,41.032c-3.563,0-6.275-0.852-8.143-2.556c-1.866-1.705-2.799-4.185-2.799-7.442
	c0-3.126,0.953-5.586,2.864-7.376c1.911-1.791,4.537-2.687,7.882-2.687h4.818l-3.289,6.317h-0.391v-0.13
	c0-0.303-0.125-0.538-0.375-0.7s-0.613-0.243-1.09-0.243c-1.541,0-2.773,0.434-3.696,1.302c-0.923,0.869-1.384,2.019-1.384,3.452
	c0,1.629,0.472,2.845,1.416,3.647c0.944,0.805,2.381,1.204,4.315,1.204h7.62V19.897c0-1.369-0.262-2.301-0.781-2.801
	c-0.521-0.5-1.51-0.749-2.964-0.749h-9.737c-0.261,0-0.504,0.048-0.732,0.146c-0.229,0.099-0.473,0.256-0.732,0.474l-1.271,1.042
	l-0.325-0.262l3.875-6.806h9.186c3.275,0,5.61,0.749,7,2.247s2.084,4.038,2.084,7.62v17.749c0,0.26,0.039,0.489,0.113,0.684
	c0.076,0.195,0.191,0.369,0.344,0.521l0.813,0.813v0.456H141.404z"/>
<path fill="#F68B21" d="M98.579,3.614c0-0.998,0.353-1.851,1.06-2.558C100.343,0.353,101.216,0,102.259,0
	c0.998,0,1.855,0.353,2.571,1.057c0.718,0.707,1.075,1.56,1.075,2.558c0,1.021-0.357,1.89-1.075,2.604
	c-0.716,0.717-1.573,1.075-2.571,1.075c-1.021,0-1.889-0.358-2.606-1.075C98.937,5.504,98.579,4.636,98.579,3.614"/>
</svg>
